<svg width="60" height="60" viewBox="0 0 60 60" fill="none" xmlns="http://www.w3.org/2000/svg">
<path d="M18.5714 41.4286C17.7857 41.4286 17.1071 41.1548 16.5357 40.6072C15.9881 40.0358 15.7143 39.3572 15.7143 38.5715V21.4286C15.7143 20.6429 15.9881 19.9762 16.5357 19.4286C17.1071 18.8572 17.7857 18.5715 18.5714 18.5715H41.4286C42.2143 18.5715 42.8809 18.8572 43.4286 19.4286C44 19.9762 44.2857 20.6429 44.2857 21.4286V38.5715C44.2857 39.3572 44 40.0358 43.4286 40.6072C42.8809 41.1548 42.2143 41.4286 41.4286 41.4286H18.5714ZM30 31.4286L41.4286 24.2858V21.4286L30 28.5715L18.5714 21.4286V24.2858L30 31.4286Z" fill="#F43F5E"/>
<circle cx="30" cy="30" r="29.5" stroke="#F43F5E"/>
</svg>
