<svg width="60" height="60" viewBox="0 0 60 60" fill="none" xmlns="http://www.w3.org/2000/svg">
<rect width="34.2857" height="34.2857" transform="translate(12.8571 12.8572)" fill="#0A0A0A"/>
<path d="M35.7143 24.2857C37.9876 24.2857 40.1677 25.1888 41.7752 26.7962C43.3827 28.4037 44.2857 30.5839 44.2857 32.8572V42.8571H38.5714V32.8572C38.5714 32.0994 38.2704 31.3727 37.7346 30.8368C37.1988 30.301 36.472 30 35.7143 30C34.9565 30 34.2298 30.301 33.694 30.8368C33.1582 31.3727 32.8571 32.0994 32.8571 32.8572V42.8571H27.1429V32.8572C27.1429 30.5839 28.0459 28.4037 29.6534 26.7962C31.2608 25.1888 33.441 24.2857 35.7143 24.2857Z" stroke="#F43F5E" stroke-width="4" stroke-linecap="round" stroke-linejoin="round"/>
<path d="M21.4286 25.7143H15.7143V42.8571H21.4286V25.7143Z" stroke="#F43F5E" stroke-width="4" stroke-linecap="round" stroke-linejoin="round"/>
<path d="M18.5714 21.4286C20.1494 21.4286 21.4286 20.1494 21.4286 18.5714C21.4286 16.9935 20.1494 15.7143 18.5714 15.7143C16.9935 15.7143 15.7143 16.9935 15.7143 18.5714C15.7143 20.1494 16.9935 21.4286 18.5714 21.4286Z" stroke="#F43F5E" stroke-width="4" stroke-linecap="round" stroke-linejoin="round"/>
<circle cx="30" cy="30" r="29.5" stroke="#F43F5E"/>
</svg>
